<?xml version="1.0" standalone="no"?>
<!DOCTYPE svg PUBLIC "-//W3C//DTD SVG 20010904//EN"
 "http://www.w3.org/TR/2001/REC-SVG-20010904/DTD/svg10.dtd">
<svg version="1.0" xmlns="http://www.w3.org/2000/svg"
 width="512.000000pt" height="512.000000pt" viewBox="0 0 512.000000 512.000000"
 preserveAspectRatio="xMidYMid meet">
<metadata>
Created by potrace 1.16, written by Peter Selinger 2001-2019
</metadata>
<g transform="translate(0.000000,512.000000) scale(0.100000,-0.100000)"
fill="#000000" stroke="none">
<path d="M2165 4461 c-50 -22 -103 -75 -122 -119 -13 -31 -15 -32 -51 -25
-172 35 -312 -71 -312 -235 0 -71 24 -133 69 -176 15 -14 104 -79 197 -144
142 -100 170 -123 172 -146 2 -15 -3 -35 -11 -44 -13 -14 -108 -254 -182 -457
-10 -27 -19 -51 -20 -52 -3 -5 -319 117 -327 125 -5 5 -49 96 -99 203 -52 112
-104 208 -122 228 -71 76 -181 100 -274 60 -94 -40 -143 -111 -151 -220 l-4
-66 -53 -22 c-141 -59 -196 -207 -126 -345 l28 -56 -33 -35 c-72 -77 -83 -204
-24 -294 39 -62 91 -98 162 -112 74 -15 116 -2 342 106 118 56 186 83 199 79
10 -3 25 -20 32 -37 7 -18 42 -66 77 -108 182 -220 253 -311 253 -323 0 -8
-56 -61 -125 -120 -145 -123 -117 -116 -375 -91 -253 25 -281 20 -359 -58 -76
-77 -97 -176 -57 -269 21 -49 97 -124 136 -134 19 -5 24 -11 20 -23 -4 -9 -9
-41 -12 -71 -7 -74 23 -146 85 -200 50 -44 93 -60 167 -60 l51 0 13 -47 c16
-61 96 -143 157 -161 127 -38 251 21 305 143 12 28 22 104 35 255 19 242 25
259 87 252 18 -2 132 12 252 32 121 20 236 39 255 41 l35 6 29 -176 29 -176
-20 -27 c-138 -187 -243 -349 -253 -392 -26 -108 27 -219 130 -273 48 -25 64
-28 120 -25 61 3 93 14 147 48 19 12 25 11 59 -19 49 -44 92 -61 152 -61 97 0
171 41 218 121 23 39 33 48 49 44 91 -23 174 -8 238 46 110 91 118 271 16 365
-19 17 -81 64 -139 104 -234 163 -230 160 -230 186 0 14 9 37 19 52 19 27 191
470 191 493 0 7 7 8 18 4 9 -4 86 -33 170 -63 110 -41 154 -62 158 -75 6 -18
45 -102 148 -319 70 -148 186 -207 317 -163 101 34 159 114 167 227 l5 67 52
21 c140 57 195 207 126 344 l-28 57 27 29 c141 151 54 388 -153 416 -61 9
-109 -8 -324 -111 -161 -78 -178 -84 -202 -72 -14 7 -27 21 -29 32 -4 18 -63
94 -266 341 l-74 90 135 114 135 113 197 -17 c244 -21 286 -20 336 3 79 36
145 136 145 220 0 95 -58 189 -139 226 -37 16 -40 21 -33 44 14 51 7 144 -15
186 -43 82 -113 126 -214 133 l-66 4 -11 42 c-13 52 -71 120 -126 149 -58 30
-164 30 -223 -1 -50 -26 -98 -82 -118 -137 -13 -36 -45 -340 -45 -424 0 -49
-32 -81 -74 -75 -17 3 -141 -13 -275 -35 -134 -23 -249 -41 -255 -41 -7 0 -23
69 -40 174 l-28 175 73 106 c41 58 99 141 130 185 70 97 86 153 69 235 -23
113 -124 195 -240 195 -44 0 -71 -7 -118 -31 l-61 -32 -37 33 c-21 18 -52 39
-70 46 -47 20 -141 17 -189 -5z m150 -163 c16 -14 31 -44 40 -78 16 -60 43
-90 82 -90 39 0 60 16 103 80 22 33 49 64 60 70 52 28 120 -12 120 -72 0 -33
-9 -47 -206 -333 l-76 -109 7 -56 c4 -30 13 -86 21 -123 15 -72 18 -117 8
-117 -3 0 -34 13 -67 29 -34 15 -72 31 -83 35 -18 5 -24 21 -37 92 -9 47 -22
96 -30 107 -8 12 -48 45 -89 73 -41 28 -119 81 -174 118 -54 38 -111 81 -126
97 -36 37 -37 81 -3 114 37 38 76 33 156 -20 78 -52 109 -56 146 -19 24 24 25
29 19 95 -7 68 -6 70 23 99 35 36 70 38 106 8z m1304 -375 c22 -25 23 -32 17
-111 -6 -68 -4 -88 9 -108 34 -53 81 -50 165 12 61 45 135 10 133 -62 -1 -29
-10 -46 -48 -84 -41 -42 -46 -51 -43 -85 4 -53 35 -72 131 -84 86 -10 112 -26
122 -72 8 -35 -14 -74 -49 -90 -16 -8 -91 -5 -266 10 -212 19 -246 19 -265 7
-12 -8 -65 -51 -118 -95 -54 -45 -99 -81 -101 -81 -2 0 -7 37 -11 83 -3 45 -8
89 -11 98 -3 10 20 35 62 70 36 30 70 62 75 72 6 10 19 122 31 250 11 127 25
243 32 257 25 54 92 61 135 13z m-2390 -410 c16 -16 45 -64 64 -108 89 -204
156 -334 182 -351 14 -9 78 -36 141 -59 63 -23 115 -45 115 -49 0 -4 -34 -32
-76 -63 l-77 -56 -86 33 c-100 38 -87 40 -272 -48 -278 -131 -285 -134 -323
-119 -45 19 -65 64 -47 108 10 24 30 39 84 65 77 37 106 64 106 98 0 35 -28
64 -89 96 -32 16 -61 36 -65 45 -31 81 43 145 127 110 52 -21 84 -19 112 10
33 32 32 68 -5 150 -37 83 -37 99 -1 136 37 37 72 37 110 2z m1062 -142 c220
-101 317 -144 341 -151 18 -6 104 5 255 30 125 21 229 38 230 37 0 -1 11 -99
22 -217 12 -118 24 -226 27 -240 3 -14 27 -52 55 -85 131 -157 239 -293 239
-302 0 -6 -78 -66 -172 -134 -95 -68 -182 -134 -193 -146 -12 -12 -56 -116
-100 -232 -45 -121 -84 -211 -92 -211 -7 0 -56 21 -110 46 -148 69 -275 125
-305 134 -22 7 -247 -24 -459 -64 -30 -6 -23 -41 -54 279 -9 88 -17 169 -20
181 -2 11 -26 45 -52 76 -92 106 -238 289 -241 301 -1 7 72 66 163 131 91 65
178 130 193 145 20 19 49 84 107 239 43 116 84 212 91 212 6 0 40 -13 75 -29z
m1933 -945 c48 -20 67 -77 39 -115 -11 -14 -49 -40 -84 -58 -73 -37 -99 -64
-99 -102 0 -34 41 -74 92 -90 45 -15 57 -29 65 -75 5 -30 1 -40 -25 -66 -35
-34 -43 -36 -102 -15 -57 20 -82 19 -114 -6 -35 -28 -34 -70 5 -154 33 -71 33
-96 0 -136 -24 -30 -83 -32 -111 -3 -10 10 -62 111 -115 224 -53 113 -106 215
-118 226 -17 17 -132 64 -266 110 -17 5 -18 5 76 73 l72 52 93 -32 93 -32 210
98 c187 86 243 112 253 114 1 1 18 -5 36 -13z m-2399 -463 c3 -43 9 -88 12
-99 4 -18 -10 -33 -66 -79 -54 -44 -73 -66 -80 -94 -6 -20 -17 -130 -27 -246
-9 -115 -21 -220 -25 -233 -5 -12 -24 -30 -43 -39 -29 -13 -39 -14 -64 -4 -43
18 -56 57 -48 141 8 74 -7 121 -39 134 -33 12 -74 5 -102 -18 -67 -55 -102
-59 -145 -16 -41 41 -33 79 27 140 53 54 60 96 22 134 -19 19 -39 25 -102 31
-68 6 -83 11 -107 35 -31 32 -36 65 -12 98 29 42 43 43 231 27 98 -8 204 -18
235 -21 31 -4 68 -4 81 0 14 3 71 46 128 96 57 49 107 89 110 90 4 0 10 -35
14 -77z m897 -345 c40 -17 78 -36 85 -42 7 -6 19 -46 27 -88 8 -43 19 -86 25
-96 5 -10 96 -78 201 -152 106 -74 198 -143 206 -154 36 -52 -4 -126 -68 -126
-23 0 -53 14 -98 45 -76 52 -109 57 -147 19 -24 -24 -25 -29 -19 -93 7 -64 5
-70 -19 -100 -54 -63 -134 -26 -149 69 -11 71 -71 109 -126 80 -11 -6 -38 -37
-60 -70 -22 -33 -49 -64 -60 -70 -54 -29 -120 11 -120 73 0 28 26 72 140 235
83 119 140 210 140 224 0 13 -9 72 -20 132 -20 111 -24 146 -15 146 3 0 37
-14 77 -32z"/>
</g>
</svg>
